<svg height="24" viewBox="0 0 24 24" width="24" xmlns="http://www.w3.org/2000/svg"><path d="m18 11c0-.959-.68-1.761-1.581-1.954.36-.601.581-1.296.581-2.046 0-2.206-1.794-4-4-4-1.517 0-2.821.857-3.5 2.104-.679-1.247-1.983-2.104-3.5-2.104-2.206 0-4 1.794-4 4 0 .902.312 1.727.817 2.396a1.994 1.994 0 0 0 -.817 1.604v8c0 1.103.897 2 2 2h12c1.103 0 2-.897 2-2v-2.638l4 2v-7l-4 2zm-5-6c1.103 0 2 .897 2 2s-.897 2-2 2-2-.897-2-2 .897-2 2-2zm-7 0c1.103 0 2 .897 2 2s-.897 2-2 2-2-.897-2-2 .897-2 2-2zm-2 14v-8h12l.002 8z"/></svg>