<?xml version="1.0" ?><svg viewBox="0 0 1000 1000" xmlns="http://www.w3.org/2000/svg"><rect fill="#18c4ff" height="346.51" rx="11.03" width="644.6" x="177.7" y="141.3"/><path d="m312.48 462.77a66.94 66.94 0 0 1 8.76 3.29 1.55 1.55 0 0 1 .75.55c.34.55-.09 1.24-.48 1.76-3.73 4.9-5.82 14.34-8.63 19.82-.88 1.71-2.35 0-4.27 0a3.7 3.7 0 0 1 -2.78-1.52 10.88 10.88 0 0 1 -1.46-2.91 47.36 47.36 0 0 1 -3.3-11.83c-.17-1.63-.28-3.49-1.54-4.53" fill="#fff"/><path d="m811.27 486.7h-606.27c-5.16 0-10.31 0-15.47 0-5.9-.05-10.52-3.92-10.76-10-.08-2.09 0-4.19 0-6.28v-315.76c0-.71 0-1.43 0-2.14a10.12 10.12 0 0 1 9.92-10.1h2.76 613.86 5.22c5.91.05 10.44 4 10.66 10.1.25 7.19 0 14.43 0 21.63v300.25 2.16a10.13 10.13 0 0 1 -9.92 10.14c-1.43.05-1.43 2.28 0 2.23 7.6-.3 12.14-6.23 12.14-13.45v-301c0-7.32.2-14.67 0-22a12.38 12.38 0 0 0 -12.41-12.29c-1.43 0-2.87 0-4.3 0h-615.53a30.25 30.25 0 0 0 -4.15.13c-7 1-10.43 7-10.43 13.51v316.45c0 2.12-.06 4.26 0 6.38a12.38 12.38 0 0 0 12.49 12.27c4.59.1 9.19 0 13.78 0h608.41a1.12 1.12 0 0 0 0-2.23z"/><path d="m320.1 469.48a13.83 13.83 0 0 0 -2.51 4.36c-.7 1.62-1.32 3.28-1.88 5-1.15 3.48-2.14 7-3.17 10.54a1.11 1.11 0 0 0 2.14.59c1-3.4 2-6.82 3.05-10.21.5-1.6 1-3.19 1.67-4.73s1.64-3.07 2.12-4.68a.86.86 0 0 0 -1.42-.82z"/><path d="m302.77 485.53a47.28 47.28 0 0 1 20.69-1.17 2 2 0 0 1 2.14 2.73l-.78 4.89a127 127 0 0 1 20.93 3.84 20.34 20.34 0 0 1 6.71 2.78c3.08 2.21 4.81 5.8 6.32 9.28 2.71 6.28 5.12 12.78 5.9 19.57s-.16 14-3.76 19.79c-3.81 6.16-10.25 10.29-17 13-11.45 4.6-24.17 5.55-36.4 3.94s-24-5.72-35.22-10.93-22.42-12-29.18-22.46a20.83 20.83 0 0 1 -3.33-7.78 24.76 24.76 0 0 1 .58-9.06 94.57 94.57 0 0 1 4-13.83c1.34-3.62 2.95-7.24 5.6-10 4.14-4.37 10.25-6.19 16.13-7.47" fill="#fff"/><path d="m303 486.38a48.91 48.91 0 0 1 13.52-1.52 37.42 37.42 0 0 1 6.6.69c.47.09 1.12.11 1.26.69a4.29 4.29 0 0 1 -.22 1.48l-.65 3.9a1.38 1.38 0 0 0 1.3 1.71 132.27 132.27 0 0 1 14.66 2.46c2.39.53 4.78 1.11 7.12 1.8a15 15 0 0 1 5.72 2.79c3.14 2.75 4.63 7 6.16 10.73a76.11 76.11 0 0 1 3.68 10.58c1.88 7.58 2 16.29-1.66 23.37-3.81 7.31-11.29 11.82-18.82 14.54-17.72 6.41-37.13 4.18-54.61-1.88a133.33 133.33 0 0 1 -24.06-10.94c-7-4.11-13.61-9.27-18.19-16.06a24 24 0 0 1 -3.05-5.85 16.09 16.09 0 0 1 -.57-6.9 70.63 70.63 0 0 1 3.55-14.29 38.74 38.74 0 0 1 6-11.91c2.54-3.16 6.2-5 10-6.23 1.88-.61 3.81-1.09 5.74-1.53s1.06-3.23-.79-2.84c-8.6 1.82-17.4 5.22-21.14 13.85a92.06 92.06 0 0 0 -4.65 14.29c-1.22 4.92-2.53 10.28-1.21 15.31 1.13 4.3 3.81 8.14 6.64 11.49a55.38 55.38 0 0 0 9.5 8.72c7.34 5.41 15.7 9.39 24.11 12.84 18.32 7.51 38.84 11.44 58.32 6.24 8.43-2.25 17.2-6.19 22.84-13.1s7-16.27 5.88-25.06a50.85 50.85 0 0 0 -2.66-10.75 75.17 75.17 0 0 0 -5.4-12.33 17.56 17.56 0 0 0 -4.09-4.9 18.24 18.24 0 0 0 -6-2.92 107.75 107.75 0 0 0 -15.4-3.33q-3.78-.55-7.58-.9l1.3 1.71.66-4.41c.18-1.24.39-2.51-.47-3.55a4.16 4.16 0 0 0 -2.75-1.24c-1.41-.21-2.83-.36-4.25-.45a46.89 46.89 0 0 0 -16.77 2 .88.88 0 0 0 .47 1.7z"/><path d="m338.18 414.17a44.39 44.39 0 0 0 8.13 19.37c1.42 1.92 3 4.75 1.22 6.38a10.27 10.27 0 0 1 -1.75 1.05c-2.5 1.58-2.54 5.14-2.39 8.1.33 6.29-.12 13.36-4.71 17.67s-11.5 4.34-17.59 3.21c-16.73-3.11-32.59-14.95-36.59-31.49-1.87-7.74-1.08-15.95 1.18-23.59 1.69-5.68 4.28-11.27 8.6-15.34 7.79-7.34 20.15-8.33 30.1-4.39 6.81 2.7 13.37 11.72 13.8 19" fill="#fff"/><path d="m285.28 438.25c-1.46-7.12-.71-14.53 1.15-21.5 1.66-6.22 4.33-12.51 9.26-16.85a25 25 0 0 1 15.59-5.79c5.42-.19 11.53.86 16 4.06 5.06 3.6 9.14 9.8 9.95 16 .15 1.13 1.85 1.22 1.84 0-.08-6.12-3.81-12.15-8.21-16.2-4.58-4.21-10.69-6-16.82-6.3a28.78 28.78 0 0 0 -17.85 4.72c-5.68 4-9.11 10.12-11.23 16.57-2.74 8.31-3.52 17.19-1.26 25.71a.8.8 0 0 0 1.55-.42z"/><path d="m337.38 414.17a41.76 41.76 0 0 0 4.93 15.46c1.28 2.27 3.1 4.28 4.24 6.62.47 1 .91 2.19-.1 2.94s-2 1.07-2.79 2.1a9.84 9.84 0 0 0 -1.55 5.92c0 2.38.21 4.75.08 7.14-.26 4.65-1.54 9.66-5.55 12.49-4.5 3.17-10.36 2.73-15.55 2.19-1-.11-1.22 1.55-.24 1.8 4.78 1.25 10.23 1.37 14.82-.66s7.45-6.46 8.44-11.38a35.82 35.82 0 0 0 .59-7.67c0-2.32-.45-4.82.28-7.08a4 4 0 0 1 2.14-2.4 4.15 4.15 0 0 0 2.27-2.5c.71-2.54-1.15-5-2.53-6.92a48.27 48.27 0 0 1 -7.86-18.22c-.18-.87-1.69-.69-1.57.21z"/><path d="m336 426.49a3.65 3.65 0 0 0 -.34.18 2.74 2.74 0 0 0 -.49.35 2.17 2.17 0 0 0 -.61.77 1.76 1.76 0 0 0 -.2.54 2.12 2.12 0 0 0 -.06.44 3.11 3.11 0 0 0 .06.44 1.83 1.83 0 0 0 .59 1l.24.19a.91.91 0 0 0 .45.14 1.19 1.19 0 0 0 .76-.14 2.07 2.07 0 0 0 .24-.17 1.5 1.5 0 0 0 .23-.2 2.14 2.14 0 0 0 .44-.76 1.57 1.57 0 0 0 .1-.61 1.65 1.65 0 0 0 -.05-.44 1 1 0 0 0 0-.17 1.33 1.33 0 0 0 -.32-.55l-.26-.19a1.24 1.24 0 0 0 -1.77.59 1.26 1.26 0 0 0 -.01 1.1s0 0 0 0l-.12-.3a1.46 1.46 0 0 1 .05.2l-.05-.33a.67.67 0 0 1 0 .2l.05-.33a1.06 1.06 0 0 1 -.06.19l.13-.29a1.62 1.62 0 0 1 -.1.18l.19-.25a.62.62 0 0 1 -.14.14l.24-.18h-.05 1.21l.25.18a.47.47 0 0 1 -.14-.14l.18.24a1 1 0 0 1 -.1-.17l.12.28a1.86 1.86 0 0 1 -.1-.39v.3a1.71 1.71 0 0 1 0-.32v.29a2 2 0 0 1 .1-.35l-.1.24a5.39 5.39 0 0 1 .55-.88l.08-.19a.62.62 0 0 0 0-.33.77.77 0 0 0 -.22-.47.86.86 0 0 0 -1-.12z"/><path d="m310.44 430c.11 0 0 0-.06 0h.12-.06.1c.09 0-.15-.09 0 0l.09.06c.09.05 0 0 0 0a.9.9 0 0 0 .1.09.46.46 0 0 0 .07.07c.06.07-.1-.16 0 0l.11.19a1.17 1.17 0 0 0 .05.11c0-.11-.05-.13 0-.07a.08.08 0 0 0 0 .05 1.82 1.82 0 0 1 .07.25c0 .15.08.31.11.47s0 .07 0 .11 0-.22 0 0 0 .15 0 .23a1 1 0 0 1 0 .25.37.37 0 0 1 0 .11s0 .15-.05.22-.08.18 0 .06 0 0 0 .05l1.18-.31c.11.09.14.12.1.07s0 0 .07.1c0 0-.07-.15 0 0s0 0 0 0c0 .16 0 .21 0 .14v-.06s-.06.26 0 .1 0 .08 0 .08v-.05l-.08.11c.1-.11-.19.12-.06 0a.92.92 0 0 0 .32-1.24.9.9 0 0 0 -1.23-.32 1.55 1.55 0 0 0 -.51.54 1.58 1.58 0 0 0 -.17.74 1.55 1.55 0 0 0 .69 1.25.87.87 0 0 0 1.18-.31 3.12 3.12 0 0 0 .29-1.53 5.05 5.05 0 0 0 -.28-1.39 2.69 2.69 0 0 0 -.94-1.35 1.85 1.85 0 0 0 -1.53-.28.79.79 0 0 0 -.55 1 .8.8 0 0 0 1 .55z"/><path d="m284.24 483.78q3-6.76 5.43-13.77c.81-2.37 1.55-4.77 2.25-7.18s1.5-4.82 1.95-7.27c.27-1.45-1.84-2.08-2.23-.62-.65 2.43-1.06 4.92-1.69 7.34s-1.3 4.69-2 7q-2.22 7.06-5.1 13.89c-.34.8 1.06 1.4 1.42.6z"/><path d="m332.15 422.27a4.07 4.07 0 0 0 .5-.13l.48-.18c.34-.11.69-.21 1-.29l.51-.1a1.09 1.09 0 0 1 .26 0c-.15 0-.16 0-.05 0h.21.21c-.15 0-.17 0-.05 0h.26.55a1 1 0 1 0 0-2.06 9.55 9.55 0 0 0 -2.42.44c-.4.13-.8.29-1.19.46-.17.08-.34.15-.5.24a3.53 3.53 0 0 0 -.57.45.79.79 0 0 0 -.13.95.82.82 0 0 0 .89.37z"/><path d="m332.84 445.13a2.33 2.33 0 0 0 .05.79 6.17 6.17 0 0 0 .19.61 8 8 0 0 0 .63 1.28 6.9 6.9 0 0 0 .9 1.12c.15.15.31.29.47.43a3 3 0 0 0 .4.3c.16.08.34.14.5.21a1 1 0 0 0 1-1.65 7.11 7.11 0 0 0 -.6-.49l-.24-.17c.26.18 0 0-.07-.06l-.42-.39c-.06-.07-.13-.14-.19-.22l-.11-.13s-.13-.16 0 0l-.08-.12-.16-.24c-.1-.17-.2-.34-.28-.51l-.06-.13s0-.18 0-.06 0 0 0-.05a.78.78 0 0 0 -.05-.14c-.09-.24-.22-.45-.33-.68a.78.78 0 0 0 -.84-.34.79.79 0 0 0 -.55.72z"/><path d="m293.18 395.8c3.9-6.9 12.64-10 20.51-9.07s14.95 5.3 21.05 10.36c1.67 1.38 3.4 3 3.66 5.19.34 3-2.19 5.41-4.62 7.11a53.33 53.33 0 0 1 -13.68 6.91 2.79 2.79 0 0 0 -1.7 1.08c-.46.85.11 1.9 0 2.87-.09 1.34-1.33 2.25-2.23 3.25s-1.4 2.79-.28 3.53a6.68 6.68 0 1 0 -12.18 5.47 10.07 10.07 0 0 0 4.26 4.14 4.08 4.08 0 0 1 1.74 1.43 3.41 3.41 0 0 1 .25 1.82c-.17 2.68-.92 5.37-.47 8 .8 4.69 5.22 8.46 5 13.21-.17 3.3-2.59 6.08-3.2 9.32-.64 3.41.77 6.88.61 10.35-.28 5.74-5.09 10.6-10.62 12.17s-11.54.33-16.77-2.07c-2.92-1.35-5.73-3.08-8.9-3.67-2.22-.42-4.52-.26-6.77-.56a17 17 0 0 1 -13-9.61c-1.06-2.34-1.71-5.08-3.79-6.59a26.52 26.52 0 0 0 -3.24-1.63c-3.73-2-5.45-6.69-4.89-10.89s3-7.93 5.86-11.05 6.2-5.77 9.1-8.86a44.36 44.36 0 0 0 9.22-14.77c1.55-4.13 2.49-8.49 4.17-12.58 3.3-8 10.55-15.26 19.23-15.18"/><path d="m293.87 396.2c2.85-4.74 8-7.47 13.33-8.29 5.92-.9 12 .91 17.2 3.69a52.6 52.6 0 0 1 8.08 5.39c2 1.58 5.21 3.76 4.48 6.71s-4.1 4.78-6.43 6.23a51.36 51.36 0 0 1 -8.72 4.34c-1.4.54-3.42.86-4.36 2.16a3.09 3.09 0 0 0 -.54 2c0 .73.38 1.47.09 2.18s-1.18 1.36-1.72 2a5.45 5.45 0 0 0 -1 1.68 3.23 3.23 0 0 0 .72 3.71 1.32 1.32 0 0 0 2.06-1.59 8.36 8.36 0 0 0 -8-4.62 7.81 7.81 0 0 0 -6.89 6c-.89 3.66.87 6.86 3.8 9a17.16 17.16 0 0 1 2.46 1.57c.78.83.23 2.55.07 3.54a19.28 19.28 0 0 0 -.19 6.73c.76 3.72 3.54 6.6 4.53 10.22 1.12 4.11-2.2 7.36-3 11.2-.86 4.32 1.36 8.68.1 12.94a13 13 0 0 1 -7.09 7.74c-3.95 1.85-8.59 1.66-12.71.56-4.39-1.16-8.13-3.79-12.43-5.13-4.11-1.27-8.5-.35-12.51-2.06a15.62 15.62 0 0 1 -7.89-7.48 52.16 52.16 0 0 0 -2.28-5.06 9.32 9.32 0 0 0 -4.54-3.59 9 9 0 0 1 -5.18-8.62c.11-9 9.45-14.69 14.9-20.6a46.15 46.15 0 0 0 7.36-10.64c2-4.08 3.21-8.42 4.58-12.74 2.28-7.24 6.59-14.73 14.12-17.49a18.43 18.43 0 0 1 5.24-1.11 1.28 1.28 0 0 0 0-2.55c-7.83-.38-14.5 5.25-18.39 11.6-2.32 3.79-3.55 8.06-4.83 12.28a50 50 0 0 1 -5.43 12.45 52.57 52.57 0 0 1 -9.07 10.4c-3.32 3.07-6.7 6.18-9 10.14a16.08 16.08 0 0 0 -2.14 11.49 11.5 11.5 0 0 0 6.85 8.22 7 7 0 0 1 3.87 4.24 27.88 27.88 0 0 0 2.49 5.16 18.92 18.92 0 0 0 9 7c4.16 1.57 8.68.65 12.83 2.17 2.22.81 4.26 2 6.42 3a32.75 32.75 0 0 0 6.48 2.19c8 1.73 17.29-.51 21.32-8.28a13.48 13.48 0 0 0 1.5-5.34c.15-2.35-.45-4.63-.7-7a11.93 11.93 0 0 1 1.16-6.57 19.34 19.34 0 0 0 2-5.74c.44-3.94-2-7.22-3.73-10.54a11.39 11.39 0 0 1 -1.37-6.32c.15-2.13.94-4.67.31-6.77-.58-1.94-2.81-2.55-4.23-3.71a6 6 0 0 1 -2.46-4.66 5.34 5.34 0 0 1 6.84-5.22 5.58 5.58 0 0 1 3.56 3.2l2.06-1.59c-1-.82 1.08-2.45 1.58-3a4.57 4.57 0 0 0 1.23-3.92c-.13-1-.2-1.22.78-1.58s1.66-.58 2.48-.9q2.42-.93 4.74-2.09a42 42 0 0 0 8.57-5.4c2.21-1.89 4.06-4.61 3.41-7.65s-3.51-5.13-5.85-6.94a55.58 55.58 0 0 0 -8.07-5.26c-5.59-2.92-11.73-4.52-18-3.63s-12.1 4.14-15.21 9.69a.8.8 0 0 0 1.38.8z"/><path d="m687.75 394.85c-6 7.43-4.13 19.82-11.11 26.3a6.77 6.77 0 0 0 -1.76 2c-.76 1.67.22 3.26 1.67 4.5 2.76 2.36 1.73 6.95 1.53 10.19-.2 3.41-.67 6.85-.68 10.27 0 2.93.6 6 2.51 8.15a9.94 9.94 0 0 0 5.92 3c3.32.53 6.69-.19 10 .25a4.39 4.39 0 0 1 3.08 1.27 4.67 4.67 0 0 1 .68 2.22q.84 6.6 1.5 13.22a6 6 0 0 0 1 3.24c.91 1.11 2.47 1.31 3.88 1.36a40.09 40.09 0 0 0 29.27-11.62 4.39 4.39 0 0 0 1.52-2.5 4.94 4.94 0 0 0 -1-2.8 57.86 57.86 0 0 1 -7.06-26.16c-.59-14.45 8.8-31.47.71-45a18 18 0 0 0 -8.15-7.2 30.22 30.22 0 0 0 -18.15-1.58c-5.36 1.13-12.53 3.93-14.49 9.87" fill="#fff"/><path d="m687.14 394.25c-5.14 6.31-4.69 14.85-8.24 21.88a14.79 14.79 0 0 1 -3.38 4.43c-1.61 1.45-2.67 3.28-1.74 5.45.82 1.91 2.8 2.79 3.25 4.91a19.25 19.25 0 0 1 -.09 5.67c-.25 2.6-.45 5.22-.64 7.83a27.63 27.63 0 0 0 .25 7.6 10.58 10.58 0 0 0 9.19 8.42c2.73.41 5.46.05 8.2.12a9.33 9.33 0 0 1 3.28.44c1.31.53 1.2 2.23 1.35 3.43q.55 4.4 1 8.81c.23 2.17.08 5 1.45 6.8s3.54 1.94 5.53 2a39.89 39.89 0 0 0 6.91-.5 41.56 41.56 0 0 0 18.92-8.27 21 21 0 0 0 4.87-4.62c1.46-2.25.17-4.27-.94-6.33a48 48 0 0 1 -3.13-7.13 59.49 59.49 0 0 1 -3.12-15.27 54.47 54.47 0 0 1 .92-13.6c1.55-8.84 4.2-18.06 2.23-27.06a21.46 21.46 0 0 0 -6.37-11.45 23.59 23.59 0 0 0 -12.84-5.44 33.72 33.72 0 0 0 -13.55 1.07c-3.65 1-7.37 2.66-10 5.51a12.36 12.36 0 0 0 -2.71 4.61c-.36 1.12 1.35 1.55 1.75.48 1.3-3.5 4.62-5.7 7.91-7.15a31 31 0 0 1 11.46-2.52 25.6 25.6 0 0 1 13.57 3 17.89 17.89 0 0 1 7.86 9.89c2.74 8.1.57 16.93-1 25a82.43 82.43 0 0 0 -1.78 12.59 60.49 60.49 0 0 0 5.8 26.88c.47 1 1 1.94 1.53 2.89.75 1.35.86 2.21-.23 3.37a32.07 32.07 0 0 1 -5 4.29 39.91 39.91 0 0 1 -11.69 5.7 32.49 32.49 0 0 1 -12.87 1.48 2.67 2.67 0 0 1 -2.32-1.32 11.63 11.63 0 0 1 -.58-3.72c-.28-2.69-.59-5.39-.91-8.08-.24-2-.09-4.86-1.46-6.5s-3.55-1.67-5.37-1.76c-4.52-.23-10.23 1.15-13.64-2.76-3.11-3.57-2.13-9.33-1.75-13.63.19-2.21.35-4.41.53-6.62a14.76 14.76 0 0 0 -.28-5.3 6.6 6.6 0 0 0 -1-2.1 29.84 29.84 0 0 1 -2.07-2.3c-1.19-2 1.41-3.39 2.51-4.75 4.66-5.76 4.56-13.65 7-20.35a18.08 18.08 0 0 1 2.62-4.85c.66-.86-.51-2.08-1.22-1.21z"/><path d="m690.3 488.18c-1.71-3.48-3.41-7.71-1.42-11a10.77 10.77 0 0 1 3.36-3.15c11.88-8 26.3-11.3 40.5-13.28a21.49 21.49 0 0 1 7.79-.11c2.54.59 5 2.25 5.81 4.73.61 1.89.51 4.44 2.33 5.23a4.55 4.55 0 0 0 2.35.12 106.28 106.28 0 0 1 41.43 3c4.83 1.34 9.72 3.11 13.36 6.57s5.73 8.46 7.4 13.3c4.62 13.41 7.21 28.84.44 41.3-3.73 6.85-9.88 12-16 16.81-12.31 9.67-25.41 18.83-40.37 23.43-10.43 3.2-21.42 4.07-32.31 4.91-16.36 1.28-32.74 2.55-49.15 2.94-4.53.1-9.14.13-13.52-1.05s-8.57-3.75-10.76-7.73c-2-3.62-2.12-7.93-2.2-12.06l-.61-31.3c-.14-7.33-.23-14.95 2.84-21.6 3.17-6.89 9.42-12 16.22-15.32s14.21-5.23 21.49-7.37c.63-.18 1.4-.56 1.35-1.22s-1.41-.18-.85.18"/><path d="m691.13 487.69c-1.47-3.18-3.41-7.73-.57-10.74a21.08 21.08 0 0 1 4.49-3.23c1.71-1 3.47-2 5.26-2.85a92.8 92.8 0 0 1 22.37-7c3.93-.78 7.91-1.47 11.89-1.91 3.39-.37 7.84-.39 9.91 2.88 1.57 2.5.63 6.54 4.36 7.34 1.88.4 4.07-.22 6-.39 2.21-.19 4.42-.32 6.64-.37a105.35 105.35 0 0 1 25.77 2.52c7.51 1.7 15.75 3.85 20.25 10.64a43 43 0 0 1 4.51 10 93.09 93.09 0 0 1 2.99 11.18c1.5 7.36 1.9 15.16-.26 22.43-2.22 7.51-7.31 13.31-13.15 18.32a198 198 0 0 1 -18.89 14.29 104.73 104.73 0 0 1 -21.26 11.31 100.31 100.31 0 0 1 -24.87 5.42c-8.81.92-17.66 1.49-26.49 2.13-9.09.66-18.2 1.23-27.31 1.57-4.42.16-8.88.4-13.31.19a25.1 25.1 0 0 1 -11.16-2.75 13.32 13.32 0 0 1 -6.57-8c-1.1-4-.87-8.2-1-12.25l-.54-27.08c-.16-7.89-.42-16.34 3.66-23.4 3.59-6.2 9.69-10.5 16.09-13.44a94 94 0 0 1 12.07-4.37c2-.61 4-1.19 6-1.78 1.35-.41 3.41-.76 3.84-2.39a1.81 1.81 0 0 0 -2.23-2.25 1.62 1.62 0 0 0 -.88 2.76 1.36 1.36 0 0 0 1.92-1.92l.22.38-.14 1.05c-.66 1.11-1-1-1.42-1-.1 0-.23.14-.35.16a13.12 13.12 0 0 0 -1.48.43l-3.13.88c-2.09.59-4.18 1.18-6.25 1.83a73.83 73.83 0 0 0 -11.76 4.72c-6.39 3.29-12.35 8.14-15.66 14.63-3.77 7.4-3.61 15.88-3.46 24 .18 9.27.34 18.54.53 27.82.08 4.07 0 8.31 1.11 12.26a16 16 0 0 0 6.3 8.64c7 4.9 16 4.32 24.12 4.07 9.28-.3 18.55-.85 27.81-1.51s18.24-1.28 27.34-2.16c8.7-.85 17.43-2.12 25.72-5a102.24 102.24 0 0 0 22-11 215.08 215.08 0 0 0 19.63-14.46c6-4.92 11.6-10.52 14.64-17.79s3.31-15.08 2.29-22.68a80.12 80.12 0 0 0 -6.45-22.65 24.4 24.4 0 0 0 -6.67-9 31.3 31.3 0 0 0 -10.34-5.17 102.82 102.82 0 0 0 -25.75-4.45 105.24 105.24 0 0 0 -13.29.18c-1.11.08-2.21.19-3.31.31a18.94 18.94 0 0 1 -3.09.32c-1.55-.11-1.55-2.25-1.82-3.42a9 9 0 0 0 -6.74-6.59c-4-1.08-8.48-.08-12.53.56a113.07 113.07 0 0 0 -23.36 5.93 70.2 70.2 0 0 0 -10.7 5.15c-3 1.79-6.7 3.84-7.58 7.51s.8 7.13 2.38 10.21c.57 1.12 2.18.14 1.66-1z"/><path d="m686.47 416.84-.17.14.09-.06-.22.1h.11-.26l.45-.05h-.28.17-.28a.7.7 0 0 1 .14 0l-.25-.1a.57.57 0 0 1 .13.08l-.21-.17.13.14-.17-.23.13.23-.12-.26a1.4 1.4 0 0 1 .1.35l-.05-.3a.71.71 0 0 1 0 .29l.05-.31a1.82 1.82 0 0 1 -.07.25l.12-.28-.1.17.18-.24-.1.1.24-.18-.12.07.29-.12h-.11l.32-.05h-.13.32a.42.42 0 0 1 -.15 0l.29.13-.13-.08.25.19-.09-.09.19.25a.41.41 0 0 1 0-.09l.12.29a.25.25 0 0 1 0-.07 1.39 1.39 0 0 0 -.33-.56l.18.24v-.06l.12.27s0 0 0-.06a1.15 1.15 0 0 0 -.78-.79 1.16 1.16 0 0 0 -1.1.29 1.55 1.55 0 0 0 -.37.63 1.24 1.24 0 0 0 0 .69 2.87 2.87 0 0 0 .15.37 1.68 1.68 0 0 0 .68.64 1.78 1.78 0 0 0 .75.2 1.4 1.4 0 0 0 .5 0 1.71 1.71 0 0 0 1-.74 1.75 1.75 0 0 0 .2-.44.86.86 0 0 0 .06-.23 2.15 2.15 0 0 0 0-.51 3 3 0 0 0 -.07-.51 2.27 2.27 0 0 0 -.5-.88 1.83 1.83 0 0 0 -.83-.53 2.47 2.47 0 0 0 -.38-.05h-.12a1.58 1.58 0 0 0 -.71.2 1.24 1.24 0 0 0 -.42.4.31.31 0 0 0 -.05.1 1.3 1.3 0 0 0 -.17.64.86.86 0 0 0 .53.78.75.75 0 0 0 .44.06.89.89 0 0 0 .5-.23z"/><path d="m684.25 410.22a1.62 1.62 0 0 0 1.12.36c.34 0-.24-.06 0 0l.31.08-.36-.15a13.73 13.73 0 0 0 1.81.74l-.45-.2.55.25-.41-.31.06.05a2 2 0 1 0 2.87-2.86 2 2 0 0 0 -.9-.52 6.36 6.36 0 0 0 -1.44-.38 12.4 12.4 0 0 0 -1.93-.22 2.05 2.05 0 0 0 -1.45 3.5 2.28 2.28 0 0 0 1.45.6l.65.08-.54-.08a14.29 14.29 0 0 1 3.52.93l-.49-.21a5.09 5.09 0 0 0 .84.34l-.49-3.77-.32.15a1.84 1.84 0 0 0 -.92 1.61 1.88 1.88 0 0 0 .92 1.6l.32.2a2.07 2.07 0 0 0 2.82-.74 2.11 2.11 0 0 0 -.74-2.82 7.05 7.05 0 0 0 -1.55-.58c-.39-.12-.78-.24-1.17-.34a19.47 19.47 0 0 0 -2.85-.47v4.1c.38 0 .75 0 1.12.09l-.55-.07a17.23 17.23 0 0 1 1.73.38l.53-4a.43.43 0 0 1 -.16 0l.52.07c-1.08-.15-2.39-.39-3.35.25l.36-.15a4.67 4.67 0 0 0 -1 .52 1.64 1.64 0 0 0 -.63.7 1.12 1.12 0 0 0 .21 1.24z"/><path d="m714.55 418.68a2.65 2.65 0 0 0 -2.32 1.63 2.34 2.34 0 0 0 -.27 1.87 1.25 1.25 0 0 0 1.04.82 1.14 1.14 0 0 0 1.13-.8 1.21 1.21 0 0 0 -.44-1.32 1.35 1.35 0 0 0 -1.68.06.95.95 0 0 0 .42 1.58 1.23 1.23 0 0 0 .63 0h-.26.2-.26.08l-.23-.1.09.05-.2-.15v.05l-.15-.2a.35.35 0 0 1 0 .08l-.1-.23v.06-.25.06-.26.06l.1-.23.15-.19.19-.15.22-.1h.25-.14.25l.23.1h-.08l.19.14.15.19-.05-.09.1.23a.53.53 0 0 1 0-.12v.25a.86.86 0 0 1 0-.16v.25a4.34 4.34 0 0 1 .29-1l-.09.21a2.82 2.82 0 0 1 .29-.5l-.14.18a2.13 2.13 0 0 1 .33-.34l-.17.13a1.23 1.23 0 0 1 .37-.21l-.2.08a2 2 0 0 1 .33-.09h-.21a.85.85 0 0 0 .56-.23.81.81 0 0 0 .23-.55.8.8 0 0 0 -.79-.79z"/><path d="m230.84 695.8c-4.19-8.09-8.66-16.18-15.05-22.67-7.06-7.17-16.15-12-25.55-15.62-33.57-12.83-70.81-10.24-106.59-6.89-14 1.31-28.78 3-40 11.49-20.04 15.19-20.44 44.89-17.03 69.79 1.71 12.5 3.88 24.55 6.51 36.33a115.62 115.62 0 0 0 112.87 90.47h138.89c-9.51-54.7-28.54-113.58-54.05-162.9z" fill="#18c4ff"/><path d="m769.16 695.8c4.19-8.09 8.66-16.18 15.05-22.67 7.06-7.17 16.15-12 25.55-15.62 33.57-12.83 70.81-10.24 106.59-6.89 14 1.31 28.78 3 40 11.49 20.06 15.19 20.46 44.86 17 69.79-1.71 12.5-3.88 24.55-6.51 36.33a115.62 115.62 0 0 1 -112.84 90.47h-138.89c9.51-54.7 28.54-113.58 54.05-162.9z" fill="#18c4ff"/><path d="m965.8 767.94a114.56 114.56 0 0 1 -86.12 86.74 120.87 120.87 0 0 1 -27.21 2.9h-137.36l1.08 1.41a591.16 591.16 0 0 1 22.25-87.16c4.85-14.4 10.23-28.64 16.22-42.61a404.61 404.61 0 0 1 19.22-39.86c4-7.17 8.79-13.9 15.19-19.15a75.37 75.37 0 0 1 21-11.63c1.33-.51.75-2.66-.59-2.15a82.76 82.76 0 0 0 -18.89 9.83 59.66 59.66 0 0 0 -14.86 15.74 185.48 185.48 0 0 0 -10.73 19.47q-5 10.11-9.62 20.45-9.28 21-16.83 42.62-7.61 21.86-13.55 44.26-5.84 21.91-10 44.23-.5 2.69-1 5.37a1.13 1.13 0 0 0 1.07 1.41h135.65a138.84 138.84 0 0 0 20.78-1.32 116.72 116.72 0 0 0 93.58-79.49q1.68-5.19 2.87-10.51c.31-1.4-1.84-2-2.15-.59z"/><path d="m871 540c-21.66-34.6-65.32-51.24-106-48.42-27.84 1.93-54.47 11.66-81.77 17.4-59.92 12.6-122 5.84-183.17 8.77-61.2-2.93-123.25 3.83-183.17-8.77-27.3-5.74-53.93-15.47-81.77-17.4-40.73-2.82-84.39 13.82-106 48.42-17.33 27.67-18.72 62.24-17.12 94.85a648.85 648.85 0 0 0 20.42 132.56 122.2 122.2 0 0 0 118.15 91l182.82.17v.13l66.72-.07 66.72.07v-.13l182.82-.17a122.2 122.2 0 0 0 118.15-91 648.85 648.85 0 0 0 20.31-132.61c1.6-32.61.21-67.18-17.11-94.8z" fill="#18c4ff"/><path d="m128.05 539.38c-7.34 11.78-12 25-14.56 38.6-2.65 13.83-3.36 28-3.19 42 .19 15.52 1.29 31 2.82 46.48q2.37 24 6.52 47.87t10.09 47.43c.49 2 1 3.92 1.51 5.87a1.12 1.12 0 0 0 2.15-.59 649.73 649.73 0 0 1 -17.39-94.53c-1.68-15.47-2.86-31-3.32-46.57-.4-14-.09-28.12 2.06-42 2.36-15.28 7-30.24 15.26-43.43.76-1.22-1.17-2.34-1.92-1.13z"/><path d="m868.76 767.65a654.85 654.85 0 0 0 17.6-96c1.66-15.64 2.85-31.36 3.25-47.08a228.46 228.46 0 0 0 -2.34-42.3c-2.22-13.69-6.33-27.17-13.19-39.28a94.72 94.72 0 0 0 -23.91-27.67c-19.25-15.14-43.47-23.32-67.78-24.9-30.28-2-59.34 7.86-88.36 14.92-3.71.9-7.43 1.76-11.16 2.55-1.4.29-.81 2.44.59 2.15 29.64-6.26 58.75-17.42 89.38-17.67 24.25-.19 48.9 6.32 69.18 19.79a95.29 95.29 0 0 1 25.56 24.68c7.83 11.22 12.89 24.1 15.88 37.4 3 13.57 4 27.54 4 41.42 0 15.13-1 30.27-2.31 45.33a648.18 648.18 0 0 1 -15.68 94.68q-1.39 5.73-2.89 11.42a1.12 1.12 0 0 0 2.15.59z"/><path d="m205.88 859.51h22.62 54.32 65.71 56.79 18.65 5.83c.78 0 2.34.31 3.07 0a1.41 1.41 0 0 1 .41 0l-1.11-1.11v.13a1.13 1.13 0 0 0 1.11 1.11l58.46-.06q23.81 0 47.62 0h27.36a1.13 1.13 0 0 0 1.11-1.11v-.13l-1.11 1.11h24.2 57.79 69.87l60.66-.05h19.82c3.08 0 6.44.38 9.51 0h.43a1.12 1.12 0 0 0 0-2.23h-24.2-57.79-69.88-60.65-19.82c-3.08 0-6.45-.38-9.51 0h-.41a1.14 1.14 0 0 0 -1.12 1.11v.13l1.12-1.12-58.46-.05q-23.81 0-47.62 0h-27.36l1.12 1.12v-.13a1.14 1.14 0 0 0 -1.12-1.11h-22.61-54.32-65.71-56.8-18.64c-2.88 0-6-.38-8.91 0a2.81 2.81 0 0 1 -.41 0 1.12 1.12 0 0 0 0 2.23z"/><g fill="#fff"><path d="m68.86 662.26c-4.09 26.64-.87 53.83 5.34 79.88 3.17 13.27 7.13 26.34 11.43 39.27 2.12 6.35 4.28 12.7 6.56 19 1.77 4.88 3.82 9.9 7.45 13.73a18.28 18.28 0 0 0 3.24 2.71c1.21.8 2.58 1.36 3.76 2.22 3.1 2.24 1.69 5.94 1.56 9.13a13.72 13.72 0 0 0 8.72 13c1.18.47 1.69-1.44.52-1.9-5.22-2-7.76-7.4-7.14-12.77.3-2.58.75-5.37-1-7.59-1.54-2-4.1-2.78-6.09-4.23-4.25-3.11-6.64-8.14-8.48-12.93-2.2-5.78-4.17-11.78-6.18-17.7-8.5-25.15-15.94-50.94-18.62-77.43a190.34 190.34 0 0 1 .52-44.18c.12-.89-1.45-1.12-1.59-.21z"/><path d="m124.56 848.76a.77.77 0 0 0 0-1.53.77.77 0 0 0 0 1.53z"/><path d="m135.77 783.65a216 216 0 0 0 18.6 52.62c.51 1 2 .12 1.52-.89a214.4 214.4 0 0 1 -18.56-52.16c-.22-1-1.78-.59-1.56.43z"/><path d="m158.5 851.11 3.74-2.46a.82.82 0 0 0 -.82-1.41l-3.72 2.51a.79.79 0 1 0 .8 1.36z"/><path d="m180.7 508c-10.72 17.38-14.43 37.79-14.95 57.95-.56 21.89 2 43.87 4.41 65.59q3.87 35.4 9.41 70.59 5.6 35.53 12.84 70.79 7.23 35.07 16.08 69.79 1.13 4.35 2.26 8.7a1 1 0 0 0 1.94-.53q-9-34.32-16.38-69t-13.17-69.72q-5.8-35.21-9.95-70.66c-2.57-22-5.32-44.11-5.73-66.24-.38-20.31 1.68-41.32 10.86-59.74 1.14-2.29 2.39-4.52 3.73-6.7.52-.86-.82-1.64-1.35-.79z"/><path d="m264.21 509.41c-14.17 9.92-13.5 29.76-11.84 45.06 2.61 24 5.46 48.08 8.22 72.11s5.61 48.34 8.45 72.51 5.75 48.56 8.66 72.84 5.71 48.33 8.76 72.48q.57 4.59 1.16 9.18c.15 1.2 2.05 1.22 1.9 0-2.8-23.82-5.75-47.63-8.61-71.45s-5.73-47.88-8.56-71.82-5.61-47.66-8.4-71.49-5.56-47.66-8.31-71.5c-1.11-9.65-2.59-19.35-2.29-29.09.26-8.15 1.75-16.9 7.12-23.35a24 24 0 0 1 4.51-4.15c.79-.57 0-1.9-.77-1.33z"/><path d="m361.4 520.68c-7.2 41.87-5.32 84.45-2.23 126.62 3.17 43 6.69 86.05 10.05 129.07 1.89 24.19 3.64 48.41 5.7 72.59.11 1.27 2.09 1.29 2 0-3.07-43.18-6.74-86.33-10.12-129.49q-2.51-31.94-5-63.86c-1.64-21.1-3.1-42.24-3.43-63.41-.36-23.77.66-47.62 4.53-71.11.15-1-1.31-1.38-1.48-.41z"/><path d="m454.92 531q3.85 60.84 6.73 121.75t4.44 121.87c.6 22.81 1 45.62 1.41 68.43a1.08 1.08 0 0 0 2.16 0c-.46-40.65-1.64-81.3-3.09-121.92s-3.35-81.23-5.68-121.82q-2-34.17-4.44-68.31c-.07-1-1.59-1-1.53 0z"/><path d="m495.38 570.27a57.8 57.8 0 0 0 -12.26-8c-3.18-1.54-6.63-2.8-10.17-2.62s-7.16 2.11-8.48 5.39a4.44 4.44 0 0 0 .08 3.9 2.5 2.5 0 0 0 3.48.86 3.77 3.77 0 0 0 1.05-1.76 19.14 19.14 0 0 0 -11.43 5.96 5.87 5.87 0 0 0 -1.95 4.21c.11 1.59 1.87 3.06 3.3 2.34a5.75 5.75 0 0 0 -1.71 5.11c.45 1.81 2.54 3.22 4.26 2.49a5.55 5.55 0 0 0 -3 6.23c.72 2.4 3.9 3.84 6 2.45-1.09 1.34-2.24 3-1.87 4.64.45 2 2.88 3 5 3.18a19.89 19.89 0 0 0 3.7 0 3.8 3.8 0 0 0 2.75-1.08c.63-.79.32-2.29-.69-2.39 2.29 1.71 5.5 1.28 8.26.53a50.7 50.7 0 0 0 13.09-5.6"/><path d="m554.32 522.19q3.69 64 4.82 128.14t-.35 128.23q-.85 36-2.52 71.92c-.07 1.33 2 1.33 2.06 0q3-64.05 3.29-128.18t-2.07-128.22q-1.38-36-3.61-71.89c-.06-1-1.68-1-1.62 0z"/><path d="m650.2 522a1255.52 1255.52 0 0 1 10.31 126.56 1218.25 1218.25 0 0 1 -2.81 126.32q-2.66 35.48-7.39 70.75c-.17 1.29 1.85 1.27 2 0a1207.46 1207.46 0 0 0 10.27-126.63 1200.29 1200.29 0 0 0 -3.17-126.95q-2.76-35.28-7.68-70.31c-.12-.86-1.64-.67-1.53.2z"/><path d="m747.5 499.85a490.65 490.65 0 0 1 13.79 69.15 487.82 487.82 0 0 1 3.71 69.74 483.14 483.14 0 0 1 -6.34 69.9c-1.92 11.59-4.86 23.21-5 35-.06 5.87.92 11.59 1.73 17.38a53.59 53.59 0 0 1 -.07 17.6c-1 5.42-2.76 10.67-4.06 16a64.71 64.71 0 0 0 -1.92 15.67c.06 10 2.12 20.37-.53 30.18a27 27 0 0 1 -3.05 7c-.58 1 .9 1.8 1.48.87 5.35-8.59 4.89-18.86 4.41-28.57a103.88 103.88 0 0 1 0-15.48c.55-5.69 2.24-11.2 3.73-16.7 1.44-5.28 2.78-10.65 2.95-16.14.19-5.8-.93-11.54-1.73-17.26-1.72-12.44.49-24.43 2.7-36.65a486.74 486.74 0 0 0 4.87-140.45 477.86 477.86 0 0 0 -12.84-69.09c-.75-2.86-1.53-5.7-2.33-8.55a.78.78 0 0 0 -1.5.42z"/><path d="m853 532.09q1.62 32.24.85 64.51t-4 64.4q-3.2 32.26-8.76 64.24-2.77 15.88-6.14 31.67-1.66 7.82-3.48 15.6c-1.2 5.13-2.17 9.89-.29 15 1.55 4.19 3.2 8.19 4 12.6a52 52 0 0 1 .82 12.89 53 53 0 0 1 -7.8 24.65c-1.14 1.83-2.38 3.61-3.69 5.32-.67.87.79 2 1.51 1.17 11.21-12.82 14.83-31.81 10.51-48.11a52.77 52.77 0 0 0 -2.11-6.25c-1-2.41-2.07-4.83-2.24-7.46a29.48 29.48 0 0 1 1.17-8.34c.62-2.64 1.22-5.29 1.82-7.94q3.54-15.88 6.49-31.91 5.87-31.86 9.3-64.12t4.45-64.65q1-32.55-.41-65.11c-.12-2.72-.26-5.43-.4-8.14-.06-1-1.68-1-1.63 0z"/><path d="m915.7 657.55c8.36 26 4.72 54.05.56 80.48q-3.32 21.06-8 41.86c-1.36 6-2.45 12.41-4.92 18.13a20.85 20.85 0 0 1 -4.24 6.55c-1.92 1.93-4.38 3.06-6.5 4.71a9.62 9.62 0 0 0 -3.81 7.93 42.78 42.78 0 0 1 -1 9.9 33.41 33.41 0 0 1 -10 16.45c-1 .9.46 2.34 1.47 1.47a34.1 34.1 0 0 0 9.74-14.32 34.59 34.59 0 0 0 1.87-8.35c.28-2.93-.5-6.57 1.1-9.19 1.4-2.3 4.12-3.44 6.25-4.93a19.62 19.62 0 0 0 5.38-5.77c3-4.9 4.26-10.7 5.57-16.24q5-21.22 8.5-42.77c2.22-13.61 4.25-27.34 4.89-41.13.7-15.23-.38-30.68-5.21-45.23-.34-1-1.94-.58-1.61.45z"/></g><path d="m703.85 410.44a59.33 59.33 0 0 1 -1.41 10.37 12.07 12.07 0 0 0 4.74 1.74 13.9 13.9 0 0 1 3.75-6c1.84-1.53 4.62-2.16 6.67-.93 3.07 1.83 2.89 6.46 1.25 9.63s-4.33 5.83-5.29 9.27 1.11 8.12 4.66 7.83a9.8 9.8 0 0 0 10.78 13.09 7.11 7.11 0 0 1 2.28-.23 6.58 6.58 0 0 1 2.15 1 13.8 13.8 0 0 0 17.63-3.93 3 3 0 0 1 1.19-1.19 2.84 2.84 0 0 1 1.91.21c8.91 3 19.73-3 21.93-12.16a12.78 12.78 0 0 0 11.47-17.75 10.58 10.58 0 0 0 3.7-17c4.61-9 .75-21.29-8.15-26 .12-4.9-.26-9.93-2.3-14.39s-6-8.26-10.83-9.06c-2.62-.44-5.39 0-7.91-.84-3.64-1.22-6-4.88-9.6-6.28-4.37-1.71-9.41.43-12.8 3.67a4.11 4.11 0 0 1 -1.86 1.24 3.48 3.48 0 0 1 -1.89-.35c-2.61-1.07-5.11-2.6-7.91-2.83s-6.07 1.53-6.18 4.34a15 15 0 0 0 -24.64 5.35 8.19 8.19 0 0 0 -9.69-.35 10.68 10.68 0 0 0 -4.36 9 3.22 3.22 0 0 1 -.16 1.42c-.39.85-1.44 1.09-2.32 1.4a7.88 7.88 0 0 0 -1.88 13.94 4.2 4.2 0 0 0 4.57 6.8c-1.3 2.12.82 5 3.27 5.41s4.86-.79 7.07-2c-.4 2.12 1.46 4.13 3.54 4.69s4.29.06 6.38-.44a4 4 0 0 0 2.93 3.88c-1.61.38-3.36.85-4.32 2.19s-.34 3.78 1.31 3.83"/><path d="m703 410.44a68.74 68.74 0 0 1 -1.57 10.09 1.1 1.1 0 0 0 .49 1.21 13.77 13.77 0 0 0 5 1.86 1.13 1.13 0 0 0 1.34-.76c1.15-3 3.12-6.75 6.84-6.79 3.24 0 4.16 3.3 3.66 5.95-1.12 5.94-8 9.79-6.36 16.43.66 2.78 2.82 5.26 5.85 5.2l-1.25-1.63a11.18 11.18 0 0 0 6.11 14.08 11.48 11.48 0 0 0 4 .91c1.65.07 3.4-.75 4.91.07a16.37 16.37 0 0 0 7.13 2.29 15.5 15.5 0 0 0 13.23-6.26c.56-.73.85-.42 1.68-.16a15 15 0 0 0 1.6.4 17.22 17.22 0 0 0 4 .33 19.91 19.91 0 0 0 7.16-1.7 18.9 18.9 0 0 0 10.8-12.37l-1.52 1.16a14.8 14.8 0 0 0 11.48-6.15 14.57 14.57 0 0 0 1.53-13.6l-.74 1.8a12.3 12.3 0 0 0 7-8.29 12.49 12.49 0 0 0 -3-11.21l.25 1.95c5-9.85 1-22.94-8.71-28.26l.82 1.42c.14-6.32-.53-13.16-4.39-18.41a17.37 17.37 0 0 0 -6.1-5.36c-2.81-1.4-5.66-1.49-8.73-1.65a9.18 9.18 0 0 1 -4.24-1.06 22.93 22.93 0 0 1 -3.14-2.32c-2.18-1.82-4.43-3.52-7.32-3.95a13.58 13.58 0 0 0 -8.53 1.79 18.77 18.77 0 0 0 -3.26 2.33c-.44.38-1 1.21-1.62 1.31s-1.66-.58-2.22-.83c-3-1.37-6.21-2.93-9.62-2.15a6.61 6.61 0 0 0 -5.41 5.8l2.85-1.21a16.73 16.73 0 0 0 -27.38 6.09l2.72-.72c-5.3-4.42-13-1.81-15.71 4.23a13.69 13.69 0 0 0 -1.14 4.64c0 .5.18 1.39-.2 1.73s-1.46.53-2 .76a9.71 9.71 0 0 0 -5.51 7.2 9.87 9.87 0 0 0 4.12 9.48l-.35-2.69a5.92 5.92 0 0 0 6.25 9.68l-2-2.55a5.46 5.46 0 0 0 2.68 7.36c3.32 1.62 7-.05 10-1.63l-2.43-1.4a5.88 5.88 0 0 0 3.5 5.77c2.68 1.3 5.71.71 8.46 0l-2-1.51a5.57 5.57 0 0 0 4.12 5.28v-2.82c-2.26.59-5.06 1.54-5.66 4.12a3.65 3.65 0 0 0 3 4.67c1.74.19 1.72-2.52 0-2.72-.76-.08-.23-1.6 0-1.88.82-.9 2.25-1.14 3.38-1.38 1.47-.32 1.3-2.4 0-2.81a2.48 2.48 0 0 1 -1.75-2.47 1.59 1.59 0 0 0 -2-1.52c-2.37.51-8.44 1.52-7.88-2.73.17-1.3-1.48-1.9-2.44-1.39-1.73.9-4.08 2.31-6.12 1.65-1-.32-2.53-1.67-1.9-2.84s-.46-3.07-2-2.55c-2.37.81-4.7-1.79-2.89-3.91a1.75 1.75 0 0 0 -.35-2.69 6.24 6.24 0 0 1 -1.83-7.94 6.39 6.39 0 0 1 3.29-2.9c1.48-.57 3-1 3.55-2.74.44-1.54.11-3.19.58-4.76a8.63 8.63 0 0 1 2.43-4 6.6 6.6 0 0 1 8.38-.47 1.66 1.66 0 0 0 2.72-.72 13.75 13.75 0 0 1 9.37-8.16 13.58 13.58 0 0 1 12.66 3.54 1.68 1.68 0 0 0 2.83-1.17c.17-2 2.83-2.81 4.52-2.66 2.82.24 5.21 2 7.82 2.92a4.15 4.15 0 0 0 3.68-.33c1.16-.73 2-1.83 3.17-2.61a11.48 11.48 0 0 1 7.18-2.26c2.39.19 4.26 1.69 6 3.16a17.13 17.13 0 0 0 6.14 3.74c2.8.79 5.76.2 8.56.93a12.52 12.52 0 0 1 6 3.78c4.39 4.78 5 11.65 4.89 17.83a1.65 1.65 0 0 0 .81 1.42c8.12 4.41 11.75 15.48 7.59 23.79a1.69 1.69 0 0 0 .25 2 9.1 9.1 0 0 1 -3.35 14.46 1.58 1.58 0 0 0 -.73 1.8 11.6 11.6 0 0 1 -1 10.84 11.4 11.4 0 0 1 -8.95 4.91 1.63 1.63 0 0 0 -1.53 1.16 15.64 15.64 0 0 1 -8 9.85 16.19 16.19 0 0 1 -6.26 1.88 15.93 15.93 0 0 1 -2.93 0 32.37 32.37 0 0 1 -3.56-.85c-2.93-.64-3.79 2-5.58 3.64a12.43 12.43 0 0 1 -5.81 2.92 12.3 12.3 0 0 1 -6.48-.36c-1.14-.39-2.09-1.09-3.19-1.58-1.42-.63-2.64-.33-4.12-.13a8.64 8.64 0 0 1 -7.85-3 8.91 8.91 0 0 1 -1.3-8.37 1.32 1.32 0 0 0 -1.27-1.66c-2.85.18-4-3.44-3.59-5.77.61-3.49 3.52-6.22 5.12-9.27 1.32-2.51 2-5.73.85-8.45a6 6 0 0 0 -7.06-3.5c-4 .9-6.08 4.7-7.41 8.25l1.34-.76a12.23 12.23 0 0 1 -4.49-1.61l.5 1.21a57.87 57.87 0 0 0 1.24-10.66c0-1.13-1.65-1.1-1.74 0z"/><path d="m684.57 434.06a1.75 1.75 0 0 0 -.18.29 2.35 2.35 0 0 0 -.11.35 5 5 0 0 1 -.18.5l.1-.24a4.5 4.5 0 0 1 -.58 1l.17-.22a3.15 3.15 0 0 1 -.6.61l.24-.19a2.27 2.27 0 0 1 -.25.18 2 2 0 0 0 -.42.39 1.23 1.23 0 0 0 -.35.84 1.28 1.28 0 0 0 .25.72 1.21 1.21 0 0 0 .62.42 1.31 1.31 0 0 0 .91-.12 2.75 2.75 0 0 0 1-1 7.2 7.2 0 0 0 .49-.85 5.69 5.69 0 0 0 .38-1.12c0-.23.08-.46.11-.69a1.58 1.58 0 0 0 -.2-.82.81.81 0 0 0 -.71-.4.85.85 0 0 0 -.71.4z"/><path d="m365.26 455.25h269.47v5.04h-269.47z" fill="#fff"/><circle cx="390.56" cy="457.77" r="6.94"/><g fill="#fff"><path d="m203.34 387.08a712.49 712.49 0 0 0 64.91-43.59c18.7-14.11 36.37-30.29 57.37-41 10.2-5.21 21.32-8.93 32.84-9.31 11.87-.39 23.35 3 33.75 8.57 21.39 11.5 37 30.49 54.91 46.39 8.35 7.41 17.89 15.78 28.81 19 10.44 3 18.81-1.74 27.45-7 4.36-2.67 9-5.38 14.24-5.76 5-.37 9.92 1.51 14.48 3.41 8.81 3.67 17.68 7.78 27 3.16 4.88-2.43 9-6.58 14.48-7.76 6-1.31 12.19 1.42 18.11 2.22 11.29 1.51 22-5.54 30.63-12 18.31-13.67 31.89-32.34 48.76-47.58 17.26-15.59 38.72-27.57 62.69-22.92 24.36 4.73 43.21 22.23 58.71 40.54 3.88 4.58 7.63 9.27 11.38 13.95 1 1.29 2.81-.53 1.81-1.8-14.8-18.84-30.44-38.72-52.35-49.63-10.23-5.09-21.62-8.27-33.12-7.79-11 .45-21.48 4.13-30.93 9.58-20.09 11.61-34.42 30.13-50.41 46.45-8.36 8.54-17.3 16.65-27.7 22.65-5.54 3.2-11.46 6.05-18 5.45-5.88-.54-11.52-3-17.51-2.66-5.28.34-9.5 3.13-13.81 5.92-4.86 3.14-9.63 5.12-15.48 3.94-9.66-1.93-18.09-8.84-28.27-8.41-9.95.43-17.32 7.82-26 11.74-12.32 5.59-23.86-1.94-33.5-9.33-19.27-14.77-34.4-34.3-54.46-48.11-9.4-6.48-19.88-11.75-31.15-14a66.69 66.69 0 0 0 -32.08 1.79c-21.71 6.48-39.92 21.23-57.34 35.13q-31.33 25-64.8 47-8.06 5.3-16.26 10.37a.84.84 0 0 0 .85 1.44z"/><path d="m240.71 242.21a68.68 68.68 0 0 1 28 .88 1 1 0 0 0 1.2-1.19 5.69 5.69 0 0 1 2.11-6.24 5.56 5.56 0 0 1 6.74.59 1.13 1.13 0 0 0 1.87-1.08c-1.44-8.18.69-18.28 8.25-22.86 8.75-5.29 19.68-.89 26.37 5.61 4.23 4.11 7.45 9.09 10.44 14.13.56.94 2.37.91 2.55-.34.72-4.75 5.73-7.65 10.31-7.17 5.42.56 9.54 5.06 11.9 9.64a1.44 1.44 0 0 0 2.46 0c1.14-2.47 3.8-3.46 6.39-3.34 3.32.15 6.19 2.12 9.05 3.6a1.2 1.2 0 0 0 1.21-2.07c-3.11-2.28-7-4.48-10.95-4.39-3.3.07-6.72 1.65-8.16 4.76h2.46c-2.88-5.58-8.11-10.67-14.69-11.07-5.62-.33-11.81 3.45-12.67 9.3l2.55-.34c-5.68-9.46-12.81-19.32-24-22.36a21.43 21.43 0 0 0 -15.31 1.21 19.59 19.59 0 0 0 -9 10.33 28.73 28.73 0 0 0 -1.32 15.95l1.87-1.09a7.79 7.79 0 0 0 -9.39-.84 7.67 7.67 0 0 0 -2.91 8.58l1.19-1.19a71.6 71.6 0 0 0 -28.94-.49c-1 .19-.55 1.65.41 1.48z"/><path d="m471.49 264.82a438.12 438.12 0 0 1 46.4 1.3 1.22 1.22 0 0 0 1-1.82 7.46 7.46 0 0 1 2.23-9.33 7.37 7.37 0 0 1 9.63 1.57c.79.95 2.25.11 2.3-1 .28-6.6.72-14.64 6.52-19 6.23-4.64 13.64 0 18.71 4.13.91.76 2.87.4 2.69-1.11-.83-7.08-1.74-15 2.37-21.25 3.5-5.36 9.7-8.44 15.52-10.58 3.59-1.32 7.36-2.53 11.22-2.53a17.72 17.72 0 0 1 9.58 3c5.81 3.73 10.1 9.78 13.3 15.77a66.13 66.13 0 0 1 7.16 23.1 1.87 1.87 0 0 0 3.45.94 12.58 12.58 0 0 1 14.48-4.17 12.72 12.72 0 0 1 7.5 13.17c-.27 1.82 2.08 3.14 3.15 1.33a5.14 5.14 0 0 1 5.84-2.48 1.29 1.29 0 0 0 .69-2.49 8.12 8.12 0 0 0 -9.5 3.23l3.15 1.33a15.76 15.76 0 0 0 -28.51-11.79l3.45.93a70.49 70.49 0 0 0 -6.5-22.7c-3.33-6.82-8-13.43-14.06-18a22.41 22.41 0 0 0 -10-4.43 27.62 27.62 0 0 0 -12.85 1.59c-6.67 2.2-13.69 5.32-18.28 10.85-6 7.22-5.44 16.44-4.34 25.21l2.7-1.12c-6-4.88-14.73-9.92-22.16-4.69-7 4.94-7.71 13.9-8 21.76l2.29-1a9.65 9.65 0 0 0 -15.85 10.88l1-1.82c-15.48-.77-30.92-.94-46.4-.37a.75.75 0 0 0 0 1.49z"/><path d="m724 229.94a85.16 85.16 0 0 1 19 .1c.79.1 1.12-.88.84-1.46-.41-.84.5-1.63 1.21-1.84a5.82 5.82 0 0 1 3 .24 8.86 8.86 0 0 0 5 .33c1.25-.39.72-2.35-.54-2-2.73.84-5.4-1.46-8.19-.52a3.45 3.45 0 0 0 -2.15 4.74l.84-1.46a85.16 85.16 0 0 0 -19 .17c-1 .12-1.07 1.78 0 1.67z"/><path d="m488.43 418.78v16.82a3.57 3.57 0 0 0 5.22 3.16l16-8.41a3.57 3.57 0 0 0 0-6.32l-16-8.41a3.56 3.56 0 0 0 -5.22 3.16z"/><path d="m541.64 423.45v7.48a1.59 1.59 0 0 0 2.32 1.41l7.13-3.75a1.59 1.59 0 0 0 0-2.81l-7.09-3.78a1.59 1.59 0 0 0 -2.36 1.45z"/><path d="m549.78 423.54v7.3a1.55 1.55 0 0 0 2.27 1.37l7-3.65a1.55 1.55 0 0 0 0-2.74l-7-3.65a1.55 1.55 0 0 0 -2.27 1.37z"/><path d="m576.17 423.54v7.3a1.55 1.55 0 0 0 2.27 1.37l6.95-3.65a1.55 1.55 0 0 0 0-2.74l-6.95-3.65a1.55 1.55 0 0 0 -2.27 1.37z"/><path d="m585.04 421.99h3.59v10.4h-3.59z"/><path d="m458.36 430.93v-7.48a1.59 1.59 0 0 0 -2.36-1.45l-7.13 3.74a1.59 1.59 0 0 0 0 2.81l7.13 3.75a1.59 1.59 0 0 0 2.36-1.37z"/><path d="m450.22 430.84v-7.3a1.55 1.55 0 0 0 -2.27-1.37l-6.95 3.65a1.55 1.55 0 0 0 0 2.74l6.95 3.65a1.55 1.55 0 0 0 2.27-1.37z"/><path d="m423.83 430.84v-7.3a1.55 1.55 0 0 0 -2.27-1.37l-6.95 3.65a1.55 1.55 0 0 0 0 2.74l6.95 3.65a1.55 1.55 0 0 0 2.27-1.37z"/><path d="m411.37 421.99h3.59v10.4h-3.59z" transform="matrix(-1 0 0 -1 826.34 854.38)"/></g><path d="m697.84 486.37c-11.48-5-25.11-2.35-36 3.8s-19.6 15.45-28.12 24.6l-20 21.5c-3.65 3.92-7.36 7.89-11.91 10.7-11.09 6.83-25.08 5.74-38.1 5.41-18.83-.49-37.87 1.1-55.87 6.68-5.14 1.6-11.09 4.7-11.21 10.08-2.1-2-5.83-1.11-7.69 1.12s-2.31 5.3-2.48 8.2a65.68 65.68 0 0 0 .27 11.39c.26 2.4.72 4.92 2.31 6.73s4.68 2.5 6.41.82c-1 3.88 4.15 6.2 8.09 6.87l31 5.27c12.36 2.11 24.81 4.23 37.35 4.12 10.23-.09 20.39-1.65 30.5-3.22 8.25-1.27 16.59-2.57 24.37-5.61a77.51 77.51 0 0 0 18.72-11c31.24-23.89 48.71-61.06 71.24-93.29"/><path d="m698.32 485.53c-13.77-6.15-29.57-1.86-41.59 6.22a111.65 111.65 0 0 0 -17.38 15c-5.83 6-11.46 12.15-17.16 18.25q-4.5 4.82-9 9.65a96.25 96.25 0 0 1 -8.23 8.18c-5.77 4.84-12.84 7.16-20.24 7.91s-15 .25-22.43.1a205.91 205.91 0 0 0 -25 .9 155.8 155.8 0 0 0 -24.46 4.31c-5.76 1.52-13.51 3.29-16.64 9a9 9 0 0 0 -1.08 4l2.51-1a6.68 6.68 0 0 0 -7.83-.42c-2.83 1.66-4.07 4.91-4.52 8a54.47 54.47 0 0 0 -.24 11.56c.24 3.4.47 7.25 2.7 10 2.09 2.59 6.07 3.41 8.67 1.13l-2.32-1.32c-.76 3.59 1.94 6.07 5 7.38a22.49 22.49 0 0 0 5.33 1.44l7.87 1.34c10.27 1.75 20.52 3.58 30.81 5.22s20.44 2.91 30.75 2.64 20.26-1.89 30.3-3.45c9.54-1.48 19-3.24 27.8-7.5 8.11-3.94 15.42-9.5 22.12-15.49 12.63-11.3 23-24.87 32.43-38.87 9.59-14.23 18.3-29 27.9-43.26 1.17-1.74 2.35-3.46 3.55-5.18 1-1.48-1.4-2.89-2.43-1.41-9.47 13.57-17.94 27.79-27 41.66s-18.52 27.28-30.1 39a122.36 122.36 0 0 1 -19.28 16.13 68.6 68.6 0 0 1 -11.95 6.47 74.91 74.91 0 0 1 -13.51 3.94c-4.67 1-9.39 1.65-14.1 2.37-4.93.76-9.87 1.49-14.83 2a134.83 134.83 0 0 1 -29.92-.24c-10-1.16-19.87-3-29.77-4.72l-15-2.55c-3.79-.65-8.29-.81-11.57-3.05-1.06-.73-2-1.76-1.68-3.13a1.42 1.42 0 0 0 -2.36-1.37 3 3 0 0 1 -3.41 0 5.85 5.85 0 0 1 -2.4-3.73 40.46 40.46 0 0 1 -.89-10.65c0-3.17-.05-6.89 1.53-9.75 1.12-2 4.19-4 6.31-2.09a1.49 1.49 0 0 0 2.51-1c.34-6.21 8.72-8.31 13.52-9.66a148.61 148.61 0 0 1 23.84-4.57 202.45 202.45 0 0 1 24.25-1.14c7.36.07 14.74.62 22.11.18 7-.43 14.08-1.8 20.19-5.4 6.62-3.9 11.65-10.07 16.82-15.62q8.63-9.28 17.24-18.59a176.83 176.83 0 0 1 16.06-15.75c11.08-9.2 25.64-16.06 40.33-12.88a31.61 31.61 0 0 1 5.12 1.59c1 .4 1.74-1.32.74-1.77z"/><path d="m457.18 576.26a8.32 8.32 0 0 1 2.92-2.64c1.27-.78 2.57-1.5 3.89-2.19a27.19 27.19 0 0 1 4.05-1.81 15.21 15.21 0 0 1 2.11-.55c.76-.13 1.54-.09 2.29-.26a1 1 0 0 0 0-1.92 10.07 10.07 0 0 0 -4.84.64 25 25 0 0 0 -4.67 2.09c-2.6 1.47-5.77 3-7.29 5.74a.89.89 0 0 0 1.54.9z"/><path d="m458.39 583.7a12.18 12.18 0 0 1 3.81-3.51 12.5 12.5 0 0 1 2.29-1.05 20.35 20.35 0 0 1 2.68-.6.89.89 0 0 0 -.24-1.74 12.31 12.31 0 0 0 -5.66 2 14.17 14.17 0 0 0 -4.29 4.12c-.58.87.82 1.67 1.41.82z"/><path d="m459.19 592.25a8.65 8.65 0 0 1 7.88-4.24 1 1 0 0 0 1-1 1 1 0 0 0 -1-1 10 10 0 0 0 -9.32 5.35.83.83 0 0 0 1.44.84z"/><path d="m462.64 601.09a10.21 10.21 0 0 1 2.59-2.65 10.63 10.63 0 0 1 1.67-1h.09l.24-.1.46-.16c.33-.11.67-.2 1-.28a1 1 0 0 0 .68-1.19 1 1 0 0 0 -1.2-.69 10.83 10.83 0 0 0 -6.9 5.28.79.79 0 0 0 1.36.79z"/><path d="m473.17 602.44a.69.69 0 0 1 .11.13l-.12-.17a1.93 1.93 0 0 0 .27.31l.15.17-.13-.18a1.79 1.79 0 0 1 .22.38l-.09-.21a1.66 1.66 0 0 1 .12.45v-.24a1.77 1.77 0 0 1 0 .46v-.24a1.64 1.64 0 0 1 -.1.38l.09-.22a1.51 1.51 0 0 1 -.15.28.93.93 0 0 0 -.1.73 1 1 0 0 0 1.74.23 2.47 2.47 0 0 0 .19-2 2.79 2.79 0 0 0 -.55-1 3.54 3.54 0 0 0 -.42-.35 1.38 1.38 0 0 0 -.69-.2.79.79 0 0 0 -.39.11.71.71 0 0 0 -.3.36.76.76 0 0 0 .15.82z"/><path d="m475.54 560.11c6.72-1.24 12.14 4.29 14.47 10a1.25 1.25 0 0 0 1.49.85 1.21 1.21 0 0 0 .85-1.5 19.72 19.72 0 0 0 -6.58-8.76 12.8 12.8 0 0 0 -10.63-2.08c-1 .26-.55 1.65.4 1.48z"/><g fill="#18c4ff"><path d="m312.1 493.38a43.09 43.09 0 0 0 9.62.81c1.12 0 1.12-1.78 0-1.74a59.35 59.35 0 0 1 -9.42-.55c-.84-.11-1 1.3-.2 1.48z"/><path d="m608 560.55a18.47 18.47 0 0 0 3.76 14.58.94.94 0 0 0 1.31 0 1 1 0 0 0 0-1.31 16.8 16.8 0 0 1 -3.53-12.82c.15-1-1.42-1.49-1.59-.44z"/><path d="m616.29 557.85a22.43 22.43 0 0 0 3.55 10.88c.62.95 2.16 0 1.52-.89a20.86 20.86 0 0 1 -3.57-10c-.08-1-1.56-1-1.5 0z"/><path d="m697.35 484.26a35.49 35.49 0 0 0 11.74-1.69c4-1.08 7.93-2.17 11.87-3.36s7.79-2.48 11.61-3.95 7.58-2.95 11.65-3.2c1-.06 1-1.68 0-1.62a37.49 37.49 0 0 0 -11.22 2.93c-3.81 1.46-7.65 2.81-11.55 4s-7.91 2.3-11.88 3.4-8 2.16-12.22 1.88c-1-.07-1 1.53 0 1.6z"/></g></svg>